<svg width="410" height="372" viewBox="0 0 410 372" fill="none" xmlns="http://www.w3.org/2000/svg">
<rect width="410" height="372" fill="#F5F5F5"/>
<g id="Section-D">
<rect x="1" y="1" width="408" height="370" rx="1" stroke="black" stroke-width="2"/>
<g id="Seat-D7">
<path id="Square-D7" d="M232.981 165.981C232.981 164.324 234.324 162.981 235.981 162.981L275.943 162.981C277.6 162.981 278.943 164.324 278.943 165.981V205.943C278.943 207.6 277.6 208.943 275.943 208.943L235.981 208.943C234.324 208.943 232.981 207.6 232.981 205.943L232.981 165.981Z" fill="white"/>
</g>
<g id="Seat-D10">
<path id="Square-D10" d="M339.981 253.981C339.981 252.324 341.324 250.981 342.981 250.981H382.943C384.6 250.981 385.943 252.324 385.943 253.981V293.943C385.943 295.6 384.6 296.943 382.943 296.943H342.981C341.324 296.943 339.981 295.6 339.981 293.943V253.981Z" fill="white"/>
</g>
<g id="Seat-D9">
<path id="Square-D9" d="M339.981 165.981C339.981 164.324 341.324 162.981 342.981 162.981H382.943C384.6 162.981 385.943 164.324 385.943 165.981V205.943C385.943 207.6 384.6 208.943 382.943 208.943H342.981C341.324 208.943 339.981 207.6 339.981 205.943V165.981Z" fill="white"/>
</g>
<g id="Seat-D1">
<path id="Square-D1" d="M38.981 74.981C38.981 73.3241 40.3241 71.981 41.981 71.981L81.9429 71.981C83.5998 71.981 84.9429 73.3241 84.9429 74.981V114.943C84.9429 116.6 83.5998 117.943 81.9429 117.943L41.981 117.943C40.3241 117.943 38.981 116.6 38.981 114.943L38.981 74.981Z" fill="white"/>
</g>
<g id="Seat-D2">
<path id="Square-D2" d="M37.7475 164.748C37.7475 163.091 39.0906 161.748 40.7475 161.748L84.2425 161.748C85.8994 161.748 87.2425 163.091 87.2425 164.748L87.2425 208.243C87.2425 209.899 85.8994 211.243 84.2425 211.243L40.7475 211.243C39.0906 211.243 37.7475 209.899 37.7475 208.243L37.7475 164.748Z" fill="white"/>
</g>
<g id="Seat-D5">
<path id="Square-D5" d="M144.749 164.749C144.749 163.092 146.092 161.749 147.749 161.749L191.246 161.749C192.903 161.749 194.246 163.092 194.246 164.749L194.246 208.246C194.246 209.903 192.903 211.246 191.246 211.246L147.749 211.246C146.092 211.246 144.749 209.903 144.749 208.246L144.749 164.749Z" fill="white"/>
</g>
<g id="Seat-D3">
<path id="Square-D3" d="M37.7487 252.749C37.7487 251.092 39.0919 249.749 40.7487 249.749L84.2462 249.749C85.9031 249.749 87.2462 251.092 87.2462 252.749L87.2462 296.246C87.2462 297.903 85.9031 299.246 84.2462 299.246L40.7487 299.246C39.0919 299.246 37.7487 297.903 37.7487 296.246L37.7487 252.749Z" fill="white"/>
</g>
<g id="Seat-D8">
<path id="Square-D8" d="M231.749 252.749C231.749 251.092 233.092 249.749 234.749 249.749L278.246 249.749C279.903 249.749 281.246 251.092 281.246 252.749L281.246 296.246C281.246 297.903 279.903 299.246 278.246 299.246L234.749 299.246C233.092 299.246 231.749 297.903 231.749 296.246L231.749 252.749Z" fill="white"/>
</g>
<g id="Seat-D4">
<path id="Square-D4" d="M144.749 73.7487C144.749 72.0919 146.092 70.7487 147.749 70.7487H191.246C192.903 70.7487 194.246 72.0919 194.246 73.7487V117.246C194.246 118.903 192.903 120.246 191.246 120.246L147.749 120.246C146.092 120.246 144.749 118.903 144.749 117.246V73.7487Z" fill="white"/>
</g>
<g id="Seat-D6">
<path id="Square-D6" d="M145.981 253.981C145.981 252.324 147.324 250.981 148.981 250.981L188.943 250.981C190.6 250.981 191.943 252.324 191.943 253.981V293.943C191.943 295.6 190.6 296.943 188.943 296.943L148.981 296.943C147.324 296.943 145.981 295.6 145.981 293.943L145.981 253.981Z" fill="white"/>
</g>
<rect id="Desk-2" x="276" y="320" width="178" height="67" rx="3" transform="rotate(-90 276 320)" fill="#FAEFC0"/>
<rect id="Desk-1" x="81" y="324" width="276" height="67" rx="3" transform="rotate(-90 81 324)" fill="#FAEFC0"/>
</g>
</svg>
