<svg width="495" height="348" viewBox="0 0 495 348" fill="none" xmlns="http://www.w3.org/2000/svg">
<rect width="495" height="348" fill="#F5F5F5"/>
<g id="Section-F">
<rect x="1" y="1" width="493" height="346" rx="1" stroke="black" stroke-width="2"/>
<g id="Seat-F1">
<path id="Square-F1" d="M55.981 123.981C55.981 122.324 57.3241 120.981 58.981 120.981L98.9429 120.981C100.6 120.981 101.943 122.324 101.943 123.981V163.943C101.943 165.6 100.6 166.943 98.9429 166.943L58.981 166.943C57.3241 166.943 55.981 165.6 55.981 163.943L55.981 123.981Z" fill="white"/>
</g>
<g id="Seat-F2">
<path id="Square-F2" d="M55.981 194.981C55.981 193.324 57.3241 191.981 58.981 191.981L98.9429 191.981C100.6 191.981 101.943 193.324 101.943 194.981V234.943C101.943 236.6 100.6 237.943 98.9429 237.943L58.981 237.943C57.3241 237.943 55.981 236.6 55.981 234.943L55.981 194.981Z" fill="white"/>
</g>
<g id="Seat-F4">
<path id="Square-F4" d="M147.981 194.981C147.981 193.324 149.324 191.981 150.981 191.981L190.943 191.981C192.6 191.981 193.943 193.324 193.943 194.981V234.943C193.943 236.6 192.6 237.943 190.943 237.943L150.981 237.943C149.324 237.943 147.981 236.6 147.981 234.943L147.981 194.981Z" fill="white"/>
</g>
<g id="Seat-F6">
<path id="Square-F6" d="M294.981 194.981C294.981 193.324 296.324 191.981 297.981 191.981H337.943C339.6 191.981 340.943 193.324 340.943 194.981V234.943C340.943 236.6 339.6 237.943 337.943 237.943H297.981C296.324 237.943 294.981 236.6 294.981 234.943V194.981Z" fill="white"/>
</g>
<g id="Seat-F8">
<path id="Square-F8" d="M386.981 194.981C386.981 193.324 388.324 191.981 389.981 191.981H429.943C431.6 191.981 432.943 193.324 432.943 194.981V234.943C432.943 236.6 431.6 237.943 429.943 237.943H389.981C388.324 237.943 386.981 236.6 386.981 234.943V194.981Z" fill="white"/>
</g>
<g id="Seat-F7">
<path id="Square-F7" d="M386.981 123.981C386.981 122.324 388.324 120.981 389.981 120.981H429.943C431.6 120.981 432.943 122.324 432.943 123.981V163.943C432.943 165.6 431.6 166.943 429.943 166.943H389.981C388.324 166.943 386.981 165.6 386.981 163.943V123.981Z" fill="white"/>
</g>
<g id="Seat-F3">
<path id="Square-F3" d="M147.981 121.859C147.981 120.142 149.273 118.75 150.868 118.75H191.056C192.65 118.75 193.943 120.142 193.943 121.859V165.141C193.943 166.858 192.65 168.25 191.056 168.25H150.868C149.273 168.25 147.981 166.858 147.981 165.141V121.859Z" fill="white"/>
</g>
<g id="Seat-F5">
<path id="Square-F5" d="M294.981 123.981C294.981 122.324 296.324 120.981 297.981 120.981H337.943C339.6 120.981 340.943 122.324 340.943 123.981V163.943C340.943 165.6 339.6 166.943 337.943 166.943H297.981C296.324 166.943 294.981 165.6 294.981 163.943V123.981Z" fill="white"/>
</g>
<rect id="Desk-1" x="153" y="95" width="164" height="57" rx="3" transform="rotate(90 153 95)" fill="#FAEFC0"/>
<rect id="Desk-2" x="391" y="95" width="164" height="55" rx="3" transform="rotate(90 391 95)" fill="#FAEFC0"/>
</g>
</svg>
