<svg width="650" height="398" viewBox="0 0 650 398" fill="none" xmlns="http://www.w3.org/2000/svg">
<rect width="650" height="398" fill="#F5F5F5"/>
<g id="Frame 1">
<rect x="1" y="1" width="648" height="396" rx="1" stroke="black" stroke-width="2"/>
<g id="Seat-B10">
<path id="Square-B10" d="M439.749 318.246C439.749 319.903 441.092 321.246 442.749 321.246L486.246 321.246C487.903 321.246 489.246 319.903 489.246 318.246L489.246 274.749C489.246 273.092 487.903 271.749 486.246 271.749L442.749 271.749C441.092 271.749 439.749 273.092 439.749 274.749L439.749 318.246Z" fill="white"/>
</g>
<g id="Seat-B3">
<path id="Square-B3" d="M187.749 236.246C187.749 237.903 189.092 239.246 190.749 239.246H234.246C235.903 239.246 237.246 237.903 237.246 236.246V192.749C237.246 191.092 235.903 189.749 234.246 189.749H190.749C189.092 189.749 187.749 191.092 187.749 192.749V236.246Z" fill="white"/>
</g>
<g id="Seat-B11">
<path id="Square-B11" d="M538.749 151.246C538.749 152.903 540.092 154.246 541.749 154.246H585.246C586.903 154.246 588.246 152.903 588.246 151.246V107.749C588.246 106.092 586.903 104.749 585.246 104.749L541.749 104.749C540.092 104.749 538.749 106.092 538.749 107.749V151.246Z" fill="white"/>
</g>
<g id="Seat-B12">
<path id="Square-B12" d="M538.749 230.246C538.749 231.903 540.092 233.246 541.749 233.246H585.246C586.903 233.246 588.246 231.903 588.246 230.246V186.749C588.246 185.092 586.903 183.749 585.246 183.749H541.749C540.092 183.749 538.749 185.092 538.749 186.749V230.246Z" fill="white"/>
</g>
<g id="Seat-B1">
<path id="Square-B1" d="M70.7487 236.246C70.7487 237.903 72.0919 239.246 73.7487 239.246H117.246C118.903 239.246 120.246 237.903 120.246 236.246L120.246 192.749C120.246 191.092 118.903 189.749 117.246 189.749H73.7487C72.0919 189.749 70.7487 191.092 70.7487 192.749V236.246Z" fill="white"/>
</g>
<g id="Seat-B2">
<path id="Square-B2" d="M70.7487 318.246C70.7487 319.903 72.0919 321.246 73.7487 321.246H117.246C118.903 321.246 120.246 319.903 120.246 318.246L120.246 274.749C120.246 273.092 118.903 271.749 117.246 271.749H73.7487C72.0919 271.749 70.7487 273.092 70.7487 274.749V318.246Z" fill="white"/>
</g>
<g id="Seat-B4">
<path id="Square-B4" d="M187.749 318.246C187.749 319.903 189.092 321.246 190.749 321.246H234.246C235.903 321.246 237.246 319.903 237.246 318.246V274.749C237.246 273.092 235.903 271.749 234.246 271.749H190.749C189.092 271.749 187.749 273.092 187.749 274.749V318.246Z" fill="white"/>
</g>
<g id="Seat-B6">
<path id="Square-B6" d="M315.749 184.749C315.749 183.092 317.092 181.749 318.749 181.749L362.246 181.749C363.903 181.749 365.246 183.092 365.246 184.749L365.246 228.246C365.246 229.903 363.903 231.246 362.246 231.246L318.749 231.246C317.092 231.246 315.749 229.903 315.749 228.246L315.749 184.749Z" fill="white"/>
</g>
<g id="Seat-B7">
<path id="Square-B7" d="M315.749 274.749C315.749 273.092 317.092 271.749 318.749 271.749L362.246 271.749C363.903 271.749 365.246 273.092 365.246 274.749L365.246 318.246C365.246 319.903 363.903 321.246 362.246 321.246L318.749 321.246C317.092 321.246 315.749 319.903 315.749 318.246L315.749 274.749Z" fill="white"/>
</g>
<g id="Seat-B9">
<path id="Square-B9" d="M439.749 184.749C439.749 183.092 441.092 181.749 442.749 181.749L486.246 181.749C487.903 181.749 489.246 183.092 489.246 184.749L489.246 228.246C489.246 229.903 487.903 231.246 486.246 231.246L442.749 231.246C441.092 231.246 439.749 229.903 439.749 228.246L439.749 184.749Z" fill="white"/>
</g>
<g id="Seat-B13">
<path id="Square-B13" d="M538.749 274.749C538.749 273.092 540.092 271.749 541.749 271.749H585.246C586.903 271.749 588.246 273.092 588.246 274.749V318.246C588.246 319.903 586.903 321.246 585.246 321.246H541.749C540.092 321.246 538.749 319.903 538.749 318.246V274.749Z" fill="white"/>
</g>
<g id="Seat-B5">
<path id="Square-B5" d="M315.749 107.749C315.749 106.092 317.092 104.749 318.749 104.749L362.246 104.749C363.903 104.749 365.246 106.092 365.246 107.749L365.246 151.246C365.246 152.903 363.903 154.246 362.246 154.246L318.749 154.246C317.092 154.246 315.749 152.903 315.749 151.246L315.749 107.749Z" fill="white"/>
</g>
<g id="Seat-B8">
<path id="Square-B8" d="M434.749 107.749C434.749 106.092 436.092 104.749 437.749 104.749L481.246 104.749C482.903 104.749 484.246 106.092 484.246 107.749L484.246 151.246C484.246 152.903 482.903 154.246 481.246 154.246L437.749 154.246C436.092 154.246 434.749 152.903 434.749 151.246L434.749 107.749Z" fill="white"/>
</g>
<rect id="Desk-1" x="192" y="165" width="181" height="81" rx="3" transform="rotate(90 192 165)" fill="#FAEFC0"/>
<g id="sofa-9-svgrepo-com 1" clip-path="url(#clip0_0_1)">
<g id="Group">
<path id="Vector" d="M168.8 117C170.261 117 171.446 115.468 171.446 113.578V106.587H160.243V52.4118H171.446V45.4223C171.446 43.5321 170.261 42 168.8 42H152.191V47.0181H147.902V51.9968H152.191V107.002H147.902V111.983H152.191V117H168.8Z" fill="#1B2968"/>
<path id="Vector_2" d="M176.113 77.9917C177.209 77.9917 178.098 76.842 178.098 75.4247V60.5637C178.098 57.7289 176.321 55.4307 174.128 55.4307H162.577V77.9915H176.113V77.9917Z" fill="#1B2968"/>
<path id="Vector_3" d="M174.128 103.569C176.321 103.569 178.098 101.271 178.098 98.4362V83.5753C178.098 82.158 177.209 81.0095 176.113 81.0095H162.576V103.569L174.128 103.569Z" fill="#1B2968"/>
</g>
</g>
<path id="Rectangle 19" d="M142 25C143.657 25 145 26.3431 145 28V128C145 129.657 143.657 131 142 131H98C96.3431 131 95 129.657 95 128V28C95 26.3431 96.3431 25 98 25H142Z" fill="#D9D9D9"/>
<g id="weekend_24dp_1F1F1F_FILL0_wght400_GRAD0_opsz24 5" clip-path="url(#clip1_0_1)">
<path id="Vector_4" d="M62.0833 72.6667C59.9306 72.6667 58.1007 72.1319 56.5937 71.0625C55.0868 69.9931 54.3333 68.6944 54.3333 67.1667V48.8333C54.3333 47.3056 55.0868 46.0069 56.5937 44.9375C58.1007 43.8681 59.9306 43.3333 62.0833 43.3333H67.25C67.25 41.8056 68.0035 40.5069 69.5104 39.4375C71.0174 38.3681 72.8472 37.8333 75 37.8333H87.9167C90.0694 37.8333 91.8993 38.3681 93.4062 39.4375C94.9132 40.5069 95.6667 41.8056 95.6667 43.3333V72.6667C95.6667 74.1944 94.9132 75.4931 93.4062 76.5625C91.8993 77.6319 90.0694 78.1667 87.9167 78.1667H75C72.8472 78.1667 71.0174 77.6319 69.5104 76.5625C68.0035 75.4931 67.25 74.1944 67.25 72.6667H62.0833ZM62.0833 69H69.3167C70.0486 68.45 70.8882 68.0069 71.8354 67.6708C72.7826 67.3347 73.8375 67.1667 75 67.1667H80.1667V48.8333H75C73.8375 48.8333 72.7826 48.6653 71.8354 48.3292C70.8882 47.9931 70.0486 47.55 69.3167 47H62.0833C61.3514 47 60.7378 47.1757 60.2427 47.5271C59.7476 47.8785 59.5 48.3139 59.5 48.8333V67.1667C59.5 67.6861 59.7476 68.1215 60.2427 68.4729C60.7378 68.8243 61.3514 69 62.0833 69ZM85.3333 45.1667V70.8333H75C74.6556 70.8333 74.3219 70.8792 73.999 70.9708C73.676 71.0625 73.3962 71.1924 73.1594 71.3604C72.9226 71.5285 72.7396 71.7271 72.6104 71.9562C72.4812 72.1854 72.4167 72.4222 72.4167 72.6667C72.4167 73.1861 72.6642 73.6215 73.1594 73.9729C73.6545 74.3243 74.2681 74.5 75 74.5H87.9167C88.6486 74.5 89.2622 74.3243 89.7573 73.9729C90.2524 73.6215 90.5 73.1861 90.5 72.6667V43.3333C90.5 42.8139 90.2524 42.3785 89.7573 42.0271C89.2622 41.6757 88.6486 41.5 87.9167 41.5H75C74.2681 41.5 73.6545 41.6757 73.1594 42.0271C72.6642 42.3785 72.4167 42.8139 72.4167 43.3333C72.4167 43.5778 72.4812 43.8146 72.6104 44.0437C72.7396 44.2729 72.9226 44.4715 73.1594 44.6396C73.3962 44.8076 73.676 44.9375 73.999 45.0292C74.3219 45.1208 74.6556 45.1667 75 45.1667H85.3333Z" fill="#122C75"/>
</g>
<path id="Vector_5" d="M61.75 118.833C59.5972 118.833 57.7674 118.299 56.2604 117.229C54.7535 116.16 54 114.861 54 113.333V95C54 93.4722 54.7535 92.1736 56.2604 91.1042C57.7674 90.0347 59.5972 89.5 61.75 89.5H66.9167C66.9167 87.9722 67.6701 86.6736 69.1771 85.6042C70.684 84.5347 72.5139 84 74.6667 84H87.5833C89.7361 84 91.566 84.5347 93.0729 85.6042C94.5799 86.6736 95.3333 87.9722 95.3333 89.5V118.833C95.3333 120.361 94.5799 121.66 93.0729 122.729C91.566 123.799 89.7361 124.333 87.5833 124.333H74.6667C72.5139 124.333 70.684 123.799 69.1771 122.729C67.6701 121.66 66.9167 120.361 66.9167 118.833H61.75ZM61.75 115.167H68.9833C69.7153 114.617 70.5549 114.174 71.5021 113.837C72.4493 113.501 73.5042 113.333 74.6667 113.333H79.8333V95H74.6667C73.5042 95 72.4493 94.8319 71.5021 94.4958C70.5549 94.1597 69.7153 93.7167 68.9833 93.1667H61.75C61.0181 93.1667 60.4045 93.3424 59.9094 93.6937C59.4142 94.0451 59.1667 94.4806 59.1667 95V113.333C59.1667 113.853 59.4142 114.288 59.9094 114.64C60.4045 114.991 61.0181 115.167 61.75 115.167ZM85 91.3333V117H74.6667C74.3222 117 73.9885 117.046 73.6656 117.137C73.3427 117.229 73.0628 117.359 72.826 117.527C72.5892 117.695 72.4062 117.894 72.2771 118.123C72.1479 118.352 72.0833 118.589 72.0833 118.833C72.0833 119.353 72.3309 119.788 72.826 120.14C73.3212 120.491 73.9347 120.667 74.6667 120.667H87.5833C88.3153 120.667 88.9288 120.491 89.424 120.14C89.9191 119.788 90.1667 119.353 90.1667 118.833V89.5C90.1667 88.9806 89.9191 88.5451 89.424 88.1937C88.9288 87.8424 88.3153 87.6667 87.5833 87.6667H74.6667C73.9347 87.6667 73.3212 87.8424 72.826 88.1937C72.3309 88.5451 72.0833 88.9806 72.0833 89.5C72.0833 89.7444 72.1479 89.9812 72.2771 90.2104C72.4062 90.4396 72.5892 90.6382 72.826 90.8062C73.0628 90.9743 73.3427 91.1042 73.6656 91.1958C73.9885 91.2875 74.3222 91.3333 74.6667 91.3333H85Z" fill="#122C75"/>
<line id="Line 5" y1="156.5" x2="236" y2="156.5" stroke="black"/>
<line id="Line 4" x1="236.5" x2="236.5" y2="157" stroke="black"/>
<rect id="Desk-2" x="442" y="70" width="276" height="81" rx="3" transform="rotate(90 442 70)" fill="#FAEFC0"/>
</g>
<path id="Desk-3" d="M636 73C637.657 73 639 74.3431 639 76V342C639 343.657 637.657 345 636 345H587C585.343 345 584 343.657 584 342V76C584 74.3431 585.343 73 587 73H636Z" fill="#FAEFC0"/>
<defs>
<clipPath id="clip0_0_1">
<rect width="75" height="58" fill="white" transform="matrix(0 1 -1 0 192 42)"/>
</clipPath>
<clipPath id="clip1_0_1">
<rect width="44" height="62" fill="white" transform="matrix(0 -1 1 0 44 80)"/>
</clipPath>
</defs>
</svg>
