<svg width="384" height="372" viewBox="0 0 384 372" fill="none" xmlns="http://www.w3.org/2000/svg">
<rect width="384" height="372" fill="#F5F5F5"/>
<g id="Section-C">
<rect x="1" y="1" width="382" height="370" rx="1" stroke="black" stroke-width="2"/>
<g id="Seat-C3">
<path id="Square-C3" d="M246.981 34.981C246.981 33.3241 248.324 31.981 249.981 31.981L289.943 31.981C291.6 31.981 292.943 33.3241 292.943 34.981V74.9429C292.943 76.5998 291.6 77.9429 289.943 77.9429L249.981 77.9429C248.324 77.9429 246.981 76.5998 246.981 74.9429L246.981 34.981Z" fill="white"/>
</g>
<g id="Seat-C1">
<path id="Square-C1" d="M69.981 34.981C69.981 33.3241 71.3241 31.981 72.981 31.981L112.943 31.981C114.6 31.981 115.943 33.3241 115.943 34.981V74.9429C115.943 76.5998 114.6 77.9429 112.943 77.9429L72.981 77.9429C71.3241 77.9429 69.981 76.5998 69.981 74.9429L69.981 34.981Z" fill="white"/>
</g>
<g id="Seat-C4">
<path id="Square-C4" d="M68.7475 147.748C68.7475 146.091 70.0906 144.748 71.7475 144.748L115.242 144.748C116.899 144.748 118.242 146.091 118.242 147.748L118.242 191.243C118.242 192.899 116.899 194.243 115.242 194.243L71.7475 194.243C70.0906 194.243 68.7475 192.899 68.7475 191.243L68.7475 147.748Z" fill="white"/>
</g>
<g id="Seat-C9">
<path id="Square-C9" d="M245.749 278.246C245.749 279.903 247.092 281.246 248.749 281.246L292.246 281.246C293.903 281.246 295.246 279.903 295.246 278.246L295.246 234.749C295.246 233.092 293.903 231.749 292.246 231.749L248.749 231.749C247.092 231.749 245.749 233.092 245.749 234.749L245.749 278.246Z" fill="white"/>
</g>
<g id="Seat-C5">
<path id="Square-C5" d="M157.749 147.749C157.749 146.092 159.092 144.749 160.749 144.749L204.246 144.749C205.903 144.749 207.246 146.092 207.246 147.749L207.246 191.246C207.246 192.903 205.903 194.246 204.246 194.246L160.749 194.246C159.092 194.246 157.749 192.903 157.749 191.246L157.749 147.749Z" fill="white"/>
</g>
<g id="Seat-C7">
<path id="Square-C7" d="M64.7487 234.749C64.7487 233.092 66.0919 231.749 67.7487 231.749L111.246 231.749C112.903 231.749 114.246 233.092 114.246 234.749L114.246 278.246C114.246 279.903 112.903 281.246 111.246 281.246L67.7487 281.246C66.0919 281.246 64.7487 279.903 64.7487 278.246L64.7487 234.749Z" fill="white"/>
</g>
<g id="Seat-C6">
<path id="Square-C6" d="M245.749 147.749C245.749 146.092 247.092 144.749 248.749 144.749L292.246 144.749C293.903 144.749 295.246 146.092 295.246 147.749L295.246 191.246C295.246 192.903 293.903 194.246 292.246 194.246L248.749 194.246C247.092 194.246 245.749 192.903 245.749 191.246L245.749 147.749Z" fill="white"/>
</g>
<g id="Seat-C2">
<path id="Square-C2" d="M157.749 33.7487C157.749 32.0919 159.092 30.7487 160.749 30.7487L204.246 30.7487C205.903 30.7487 207.246 32.0919 207.246 33.7487L207.246 77.2462C207.246 78.9031 205.903 80.2462 204.246 80.2462L160.749 80.2462C159.092 80.2462 157.749 78.9031 157.749 77.2462L157.749 33.7487Z" fill="white"/>
</g>
<g id="Seat-C8">
<path id="Square-C8" d="M158.981 235.981C158.981 234.324 160.324 232.981 161.981 232.981L201.943 232.981C203.6 232.981 204.943 234.324 204.943 235.981V275.943C204.943 277.6 203.6 278.943 201.943 278.943L161.981 278.943C160.324 278.943 158.981 277.6 158.981 275.943L158.981 235.981Z" fill="white"/>
</g>
<rect id="Desk-2" x="44" y="272" width="276" height="81" rx="3" fill="#FAEFC0"/>
<rect id="Desk-1" x="44" y="69" width="276" height="81" rx="3" fill="#FAEFC0"/>
</g>
</svg>
