<svg width="1440" height="1024" viewBox="0 0 1440 1024" fill="none" xmlns="http://www.w3.org/2000/svg">
<g id="Section-G">
<rect width="1440" height="1024" fill="white"/>
<rect id="Desk2" x="563" y="330" width="188" height="364" fill="white" stroke="black" stroke-width="2"/>
<rect id="Desk3" x="1107" y="330" width="188" height="364" fill="white" stroke="black" stroke-width="2"/>
<g id="G3">
<mask id="path-3-inside-1_1_1681" fill="white">
<path d="M462 357H562V457H462V357Z"/>
</mask>
<path d="M462 357H562V457H462V357Z" fill="white"/>
<path d="M462 357V355H460V357H462ZM462 457H460V459H462V457ZM462 357V359H562V357V355H462V357ZM562 457V455H462V457V459H562V457ZM462 457H464V357H462H460V457H462Z" fill="black" mask="url(#path-3-inside-1_1_1681)"/>
</g>
<g id="G4">
<mask id="path-5-inside-2_1_1681" fill="white">
<path d="M462 553H562V653H462V553Z"/>
</mask>
<path d="M462 553H562V653H462V553Z" fill="white"/>
<path d="M462 553V551H460V553H462ZM462 653H460V655H462V653ZM462 553V555H562V553V551H462V553ZM562 653V651H462V653V655H562V653ZM462 653H464V553H462H460V653H462Z" fill="black" mask="url(#path-5-inside-2_1_1681)"/>
</g>
<g id="G5">
<mask id="path-7-inside-3_1_1681" fill="white">
<path d="M752 357H852V457H752V357Z"/>
</mask>
<path d="M752 357H852V457H752V357Z" fill="white"/>
<path d="M852 357H854V355H852V357ZM852 457V459H854V457H852ZM752 357V359H852V357V355H752V357ZM852 357H850V457H852H854V357H852ZM852 457V455H752V457V459H852V457Z" fill="black" mask="url(#path-7-inside-3_1_1681)"/>
</g>
<g id="G6">
<mask id="path-9-inside-4_1_1681" fill="white">
<path d="M752 553H852V653H752V553Z"/>
</mask>
<path d="M752 553H852V653H752V553Z" fill="white"/>
<path d="M852 553H854V551H852V553ZM852 653V655H854V653H852ZM752 553V555H852V553V551H752V553ZM852 553H850V653H852H854V553H852ZM852 653V651H752V653V655H852V653Z" fill="black" mask="url(#path-9-inside-4_1_1681)"/>
</g>
<g id="G7">
<mask id="path-11-inside-5_1_1681" fill="white">
<path d="M1006 357H1106V457H1006V357Z"/>
</mask>
<path d="M1006 357H1106V457H1006V357Z" fill="white"/>
<path d="M1006 357V355H1004V357H1006ZM1006 457H1004V459H1006V457ZM1006 357V359H1106V357V355H1006V357ZM1106 457V455H1006V457V459H1106V457ZM1006 457H1008V357H1006H1004V457H1006Z" fill="black" mask="url(#path-11-inside-5_1_1681)"/>
</g>
<g id="G8">
<mask id="path-13-inside-6_1_1681" fill="white">
<path d="M1006 553H1106V653H1006V553Z"/>
</mask>
<path d="M1006 553H1106V653H1006V553Z" fill="white"/>
<path d="M1006 553V551H1004V553H1006ZM1006 653H1004V655H1006V653ZM1006 553V555H1106V553V551H1006V553ZM1106 653V651H1006V653V655H1106V653ZM1006 653H1008V553H1006H1004V653H1006Z" fill="black" mask="url(#path-13-inside-6_1_1681)"/>
</g>
<g id="G9">
<mask id="path-15-inside-7_1_1681" fill="white">
<path d="M1296 357H1396V457H1296V357Z"/>
</mask>
<path d="M1296 357H1396V457H1296V357Z" fill="white"/>
<path d="M1396 357H1398V355H1396V357ZM1396 457V459H1398V457H1396ZM1296 357V359H1396V357V355H1296V357ZM1396 357H1394V457H1396H1398V357H1396ZM1396 457V455H1296V457V459H1396V457Z" fill="black" mask="url(#path-15-inside-7_1_1681)"/>
</g>
<g id="G10">
<mask id="path-17-inside-8_1_1681" fill="white">
<path d="M1296 553H1396V653H1296V553Z"/>
</mask>
<path d="M1296 553H1396V653H1296V553Z" fill="white"/>
<path d="M1396 553H1398V551H1396V553ZM1396 653V655H1398V653H1396ZM1296 553V555H1396V553V551H1296V553ZM1396 553H1394V653H1396H1398V553H1396ZM1396 653V651H1296V653V655H1396V653Z" fill="black" mask="url(#path-17-inside-8_1_1681)"/>
</g>
<rect id="Desk1" x="19" y="330" width="188" height="364" fill="white" stroke="black" stroke-width="2"/>
<g id="G1">
<mask id="path-20-inside-9_1_1681" fill="white">
<path d="M208 357H308V457H208V357Z"/>
</mask>
<path d="M208 357H308V457H208V357Z" fill="white"/>
<path d="M308 357H310V355H308V357ZM308 457V459H310V457H308ZM208 357V359H308V357V355H208V357ZM308 357H306V457H308H310V357H308ZM308 457V455H208V457V459H308V457Z" fill="black" mask="url(#path-20-inside-9_1_1681)"/>
</g>
<g id="G2">
<mask id="path-22-inside-10_1_1681" fill="white">
<path d="M208 553H308V653H208V553Z"/>
</mask>
<path d="M208 553H308V653H208V553Z" fill="white"/>
<path d="M308 553H310V551H308V553ZM308 653V655H310V653H308ZM208 553V555H308V553V551H208V553ZM308 553H306V653H308H310V553H308ZM308 653V651H208V653V655H308V653Z" fill="black" mask="url(#path-22-inside-10_1_1681)"/>
</g>
</g>
</svg>
