<svg width="743" height="372" viewBox="0 0 743 372" fill="none" xmlns="http://www.w3.org/2000/svg">
<rect width="743" height="372" fill="#F5F5F5"/>
<g id="Frame 1">
<rect x="1" y="1" width="741" height="370" rx="1" stroke="black" stroke-width="2"/>
<g id="Seat-A1">
<path id="Square-A1" d="M45.981 50.981C45.981 49.3241 47.3241 47.981 48.981 47.981H88.9429C90.5998 47.981 91.9429 49.3241 91.9429 50.981V90.9429C91.9429 92.5998 90.5998 93.9429 88.9429 93.9429H48.981C47.3241 93.9429 45.981 92.5998 45.981 90.9429V50.981Z" fill="white"/>
</g>
<g id="Sofa-4" clip-path="url(#clip0_0_1)">
<path id="Vector" d="M312.605 132.713C311.245 131.634 310.465 130.242 310.268 128.534C310.07 126.827 310.511 125.293 311.589 123.932L324.529 107.605C325.607 106.245 327 105.465 328.708 105.268C330.415 105.07 331.949 105.511 333.309 106.589L336.575 109.177C337.653 107.816 339.046 107.037 340.753 106.84C342.46 106.642 343.994 107.083 345.355 108.161L353.519 114.631C354.879 115.709 355.658 117.102 355.856 118.809C356.054 120.517 355.613 122.051 354.535 123.411L333.831 149.535C332.752 150.895 331.36 151.675 329.652 151.872C327.945 152.07 326.411 151.629 325.05 150.551L316.887 144.081C315.526 143.003 314.747 141.61 314.549 139.903C314.352 138.195 314.792 136.661 315.871 135.301L312.605 132.713ZM315.193 129.447L319.765 133.07C320.616 132.947 321.459 132.973 322.295 133.148C323.131 133.324 323.916 133.702 324.651 134.285L327.916 136.873L340.856 120.545L337.591 117.957C336.856 117.375 336.308 116.697 335.947 115.923C335.585 115.149 335.367 114.334 335.293 113.478L330.721 109.854C330.259 109.488 329.747 109.337 329.186 109.402C328.625 109.467 328.161 109.731 327.795 110.193L314.854 126.521C314.488 126.983 314.337 127.495 314.402 128.056C314.467 128.617 314.731 129.081 315.193 129.447ZM346.71 119.868L328.594 142.726L322.063 137.55C321.845 137.378 321.602 137.251 321.333 137.171C321.064 137.091 320.796 137.066 320.527 137.097C320.259 137.129 320.003 137.214 319.76 137.353C319.517 137.493 319.309 137.671 319.136 137.889C318.769 138.351 318.619 138.863 318.684 139.424C318.748 139.985 319.012 140.449 319.475 140.815L327.638 147.286C328.101 147.652 328.613 147.803 329.174 147.738C329.735 147.673 330.199 147.409 330.565 146.947L351.269 120.823C351.636 120.361 351.787 119.849 351.722 119.288C351.657 118.727 351.393 118.263 350.931 117.896L342.767 111.426C342.304 111.06 341.793 110.909 341.232 110.974C340.671 111.039 340.207 111.302 339.84 111.765C339.668 111.983 339.541 112.226 339.461 112.495C339.381 112.764 339.357 113.032 339.388 113.3C339.419 113.569 339.504 113.825 339.643 114.068C339.783 114.311 339.961 114.519 340.179 114.692L346.71 119.868Z" fill="#122C75"/>
</g>
<g id="Sofa-1" clip-path="url(#clip1_0_1)">
<path id="Vector_2" d="M384.742 103.58C385.833 102.23 387.233 101.464 388.942 101.283C390.651 101.101 392.181 101.556 393.531 102.648L409.735 115.742C411.086 116.833 411.851 118.233 412.033 119.942C412.214 121.651 411.759 123.181 410.668 124.531L408.049 127.772C409.4 128.863 410.165 130.263 410.347 131.972C410.528 133.681 410.073 135.211 408.982 136.561L402.435 144.663C401.344 146.014 399.944 146.78 398.235 146.961C396.526 147.142 394.996 146.688 393.646 145.596L367.719 124.646C366.369 123.555 365.603 122.154 365.422 120.445C365.24 118.736 365.695 117.207 366.786 115.856L373.333 107.754C374.425 106.404 375.825 105.638 377.534 105.457C379.243 105.275 380.773 105.73 382.123 106.821L384.742 103.58ZM387.983 106.199L384.316 110.736C384.431 111.588 384.397 112.431 384.214 113.266C384.031 114.1 383.645 114.882 383.056 115.611L380.437 118.852L396.641 131.946L399.26 128.705C399.849 127.976 400.532 127.434 401.309 127.08C402.087 126.726 402.904 126.516 403.761 126.449L407.427 121.912C407.798 121.453 407.954 120.943 407.894 120.381C407.835 119.82 407.575 119.354 407.116 118.983L390.912 105.888C390.453 105.517 389.943 105.362 389.381 105.421C388.82 105.481 388.354 105.74 387.983 106.199ZM397.263 137.805L374.577 119.474L379.815 112.992C379.99 112.776 380.118 112.534 380.201 112.266C380.284 111.998 380.311 111.729 380.282 111.461C380.254 111.192 380.171 110.936 380.034 110.691C379.897 110.446 379.72 110.237 379.504 110.062C379.045 109.691 378.535 109.535 377.973 109.595C377.412 109.655 376.945 109.914 376.574 110.373L370.027 118.475C369.656 118.934 369.5 119.445 369.56 120.006C369.62 120.568 369.879 121.034 370.338 121.405L396.265 142.356C396.724 142.727 397.234 142.882 397.796 142.823C398.357 142.763 398.823 142.504 399.194 142.045L405.741 133.943C406.112 133.483 406.268 132.973 406.209 132.412C406.149 131.85 405.89 131.384 405.43 131.013C405.214 130.838 404.972 130.71 404.704 130.627C404.436 130.544 404.168 130.517 403.899 130.546C403.631 130.574 403.374 130.657 403.13 130.794C402.885 130.931 402.675 131.108 402.501 131.324L397.263 137.805Z" fill="#122C75"/>
</g>
<g id="Sofa-3" clip-path="url(#clip2_0_1)">
<path id="Vector_3" d="M338.657 201.532C337.421 202.752 335.945 203.357 334.226 203.347C332.507 203.336 331.038 202.713 329.818 201.478L315.177 186.657C313.957 185.421 313.352 183.945 313.363 182.226C313.373 180.507 313.996 179.038 315.231 177.818L318.196 174.89C316.976 173.655 316.371 172.178 316.381 170.459C316.392 168.741 317.015 167.271 318.25 166.051L325.661 158.731C326.896 157.511 328.373 156.906 330.091 156.916C331.81 156.927 333.279 157.55 334.499 158.785L357.924 182.499C359.145 183.734 359.749 185.211 359.739 186.93C359.728 188.648 359.105 190.118 357.87 191.338L350.46 198.658C349.224 199.878 347.748 200.483 346.029 200.473C344.31 200.462 342.841 199.839 341.621 198.604L338.657 201.532ZM335.728 198.568L339.878 194.469C339.859 193.609 339.987 192.775 340.262 191.966C340.537 191.158 341.008 190.424 341.675 189.765L344.639 186.837L329.999 172.016L327.034 174.944C326.367 175.603 325.628 176.065 324.816 176.33C324.004 176.595 323.169 176.713 322.309 176.683L318.159 180.782C317.74 181.197 317.528 181.687 317.524 182.251C317.521 182.816 317.727 183.308 318.141 183.728L332.782 198.55C333.197 198.97 333.687 199.182 334.251 199.185C334.816 199.188 335.308 198.983 335.728 198.568ZM330.035 166.123L350.532 186.873L344.603 192.73C344.406 192.925 344.251 193.151 344.139 193.408C344.027 193.665 343.97 193.929 343.968 194.199C343.966 194.469 344.02 194.733 344.129 194.992C344.238 195.25 344.39 195.478 344.585 195.676C345 196.096 345.49 196.308 346.054 196.311C346.619 196.314 347.111 196.109 347.531 195.694L354.942 188.374C355.362 187.959 355.574 187.469 355.577 186.904C355.581 186.34 355.375 185.847 354.96 185.427L331.535 161.713C331.12 161.293 330.63 161.081 330.066 161.078C329.501 161.074 329.009 161.28 328.589 161.695L321.178 169.015C320.758 169.43 320.546 169.92 320.543 170.485C320.539 171.049 320.745 171.542 321.16 171.962C321.355 172.159 321.581 172.314 321.838 172.426C322.096 172.538 322.359 172.595 322.629 172.597C322.899 172.598 323.164 172.545 323.422 172.436C323.68 172.327 323.909 172.175 324.106 171.98L330.035 166.123Z" fill="#122C75"/>
</g>
<g id="Sofa-2" clip-path="url(#clip3_0_1)">
<path id="Vector_4" d="M413.637 171.529C414.997 172.607 415.776 174 415.974 175.708C416.172 177.415 415.731 178.949 414.653 180.309L401.713 196.637C400.634 197.997 399.242 198.776 397.534 198.974C395.827 199.172 394.293 198.731 392.932 197.653L389.667 195.065C388.589 196.425 387.196 197.205 385.489 197.402C383.781 197.6 382.247 197.159 380.887 196.081L372.723 189.611C371.363 188.533 370.583 187.14 370.386 185.433C370.188 183.725 370.629 182.191 371.707 180.831L392.411 154.707C393.489 153.346 394.882 152.567 396.59 152.37C398.297 152.172 399.831 152.612 401.191 153.691L409.355 160.161C410.716 161.239 411.495 162.632 411.692 164.339C411.89 166.047 411.45 167.58 410.371 168.941L413.637 171.529ZM411.049 174.795L406.477 171.171C405.626 171.295 404.783 171.269 403.947 171.093C403.111 170.918 402.326 170.54 401.591 169.957L398.325 167.369L385.385 183.697L388.651 186.285C389.386 186.867 389.934 187.545 390.295 188.319C390.657 189.093 390.874 189.908 390.949 190.764L395.521 194.387C395.983 194.754 396.495 194.905 397.056 194.84C397.617 194.775 398.081 194.511 398.447 194.049L411.387 177.721C411.754 177.259 411.905 176.747 411.84 176.186C411.775 175.625 411.511 175.161 411.049 174.795ZM379.532 184.374L397.648 161.516L404.179 166.692C404.397 166.864 404.64 166.991 404.909 167.071C405.177 167.151 405.446 167.175 405.714 167.144C405.983 167.113 406.238 167.028 406.482 166.889C406.725 166.749 406.933 166.571 407.106 166.353C407.472 165.89 407.623 165.379 407.558 164.818C407.493 164.257 407.23 163.793 406.767 163.426L398.603 156.956C398.141 156.59 397.629 156.439 397.068 156.504C396.507 156.569 396.043 156.832 395.677 157.295L374.972 183.419C374.606 183.881 374.455 184.393 374.52 184.954C374.585 185.515 374.849 185.979 375.311 186.345L383.475 192.816C383.937 193.182 384.449 193.333 385.01 193.268C385.571 193.203 386.035 192.939 386.402 192.477C386.574 192.259 386.7 192.016 386.781 191.747C386.861 191.478 386.885 191.21 386.854 190.941C386.823 190.673 386.738 190.417 386.598 190.174C386.459 189.931 386.281 189.723 386.063 189.55L379.532 184.374Z" fill="#122C75"/>
</g>
<g id="Seat-A5">
<path id="Square-A5" d="M42.981 246.981C42.981 245.324 44.3241 243.981 45.981 243.981H85.9429C87.5998 243.981 88.9429 245.324 88.9429 246.981V286.943C88.9429 288.6 87.5998 289.943 85.9429 289.943H45.981C44.3241 289.943 42.981 288.6 42.981 286.943V246.981Z" fill="white"/>
</g>
<g id="Seat-A6">
<path id="Square-A6" d="M117.981 246.981C117.981 245.324 119.324 243.981 120.981 243.981H160.943C162.6 243.981 163.943 245.324 163.943 246.981V286.943C163.943 288.6 162.6 289.943 160.943 289.943H120.981C119.324 289.943 117.981 288.6 117.981 286.943V246.981Z" fill="white"/>
</g>
<g id="Seat-A7">
<path id="Square-A7" d="M253.981 280.981C253.981 279.324 255.324 277.981 256.981 277.981H296.943C298.6 277.981 299.943 279.324 299.943 280.981V320.943C299.943 322.6 298.6 323.943 296.943 323.943H256.981C255.324 323.943 253.981 322.6 253.981 320.943V280.981Z" fill="white"/>
</g>
<g id="Seat-A8">
<path id="Square-A8" d="M420.981 280.981C420.981 279.324 422.324 277.981 423.981 277.981H463.943C465.6 277.981 466.943 279.324 466.943 280.981V320.943C466.943 322.6 465.6 323.943 463.943 323.943H423.981C422.324 323.943 420.981 322.6 420.981 320.943V280.981Z" fill="white"/>
</g>
<g id="Seat-A9">
<path id="Square-A9" d="M547.749 113.246C547.749 114.903 549.092 116.246 550.749 116.246H594.246C595.903 116.246 597.246 114.903 597.246 113.246V69.7487C597.246 68.0919 595.903 66.7487 594.246 66.7487L550.749 66.7487C549.092 66.7487 547.749 68.0919 547.749 69.7487V113.246Z" fill="white"/>
</g>
<g id="Seat-A10">
<path id="Square-A10" d="M547.749 136.749C547.749 135.092 549.092 133.749 550.749 133.749H594.246C595.903 133.749 597.246 135.092 597.246 136.749V180.246C597.246 181.903 595.903 183.246 594.246 183.246H550.749C549.092 183.246 547.749 181.903 547.749 180.246V136.749Z" fill="white"/>
</g>
<g id="Seat-A11">
<path id="Square-A11" d="M547.749 202.749C547.749 201.092 549.092 199.749 550.749 199.749H594.246C595.903 199.749 597.246 201.092 597.246 202.749V246.246C597.246 247.903 595.903 249.246 594.246 249.246H550.749C549.092 249.246 547.749 247.903 547.749 246.246V202.749Z" fill="white"/>
</g>
<g id="Seat-A12">
<path id="Square-A12" d="M547.749 269.749C547.749 268.092 549.092 266.749 550.749 266.749H594.246C595.903 266.749 597.246 268.092 597.246 269.749V313.246C597.246 314.903 595.903 316.246 594.246 316.246H550.749C549.092 316.246 547.749 314.903 547.749 313.246V269.749Z" fill="white"/>
</g>
<g id="Seat-A13">
<path id="Square-A13" d="M661.749 69.2132C661.749 67.5563 663.092 66.2132 664.749 66.2132H708.246C709.903 66.2132 711.246 67.5563 711.246 69.2132V112.711C711.246 114.368 709.903 115.711 708.246 115.711L664.749 115.711C663.092 115.711 661.749 114.368 661.749 112.711V69.2132Z" fill="white"/>
</g>
<g id="Seat-A14">
<path id="Square-A14" d="M661.749 135.213C661.749 133.556 663.092 132.213 664.749 132.213H708.246C709.903 132.213 711.246 133.556 711.246 135.213V178.711C711.246 180.368 709.903 181.711 708.246 181.711H664.749C663.092 181.711 661.749 180.368 661.749 178.711V135.213Z" fill="white"/>
</g>
<g id="Seat-A15">
<path id="Square-A15" d="M661.749 203.749C661.749 202.092 663.092 200.749 664.749 200.749H708.246C709.903 200.749 711.246 202.092 711.246 203.749V247.246C711.246 248.903 709.903 250.246 708.246 250.246H664.749C663.092 250.246 661.749 248.903 661.749 247.246V203.749Z" fill="white"/>
</g>
<g id="Seat-A16">
<path id="Square-A16" d="M661.749 270.213C661.749 268.556 663.092 267.213 664.749 267.213H708.246C709.903 267.213 711.246 268.556 711.246 270.213V313.711C711.246 315.368 709.903 316.711 708.246 316.711H664.749C663.092 316.711 661.749 315.368 661.749 313.711V270.213Z" fill="white"/>
</g>
<g id="Seat-A3">
<path id="Square-A3" d="M42.981 127.445C42.981 125.789 44.3241 124.445 45.981 124.445H85.9429C87.5998 124.445 88.9429 125.789 88.9429 127.445V167.407C88.9429 169.064 87.5998 170.407 85.9429 170.407H45.981C44.3241 170.407 42.981 169.064 42.981 167.407V127.445Z" fill="white"/>
</g>
<g id="Seat-A4">
<path id="Square-A4" d="M118.981 127.445C118.981 125.789 120.324 124.445 121.981 124.445H161.943C163.6 124.445 164.943 125.789 164.943 127.445V167.407C164.943 169.064 163.6 170.407 161.943 170.407H121.981C120.324 170.407 118.981 169.064 118.981 167.407V127.445Z" fill="white"/>
</g>
<g id="Seat-A2">
<path id="Square-A2" d="M118.981 51.4454C118.981 49.7886 120.324 48.4454 121.981 48.4454H161.943C163.6 48.4454 164.943 49.7886 164.943 51.4454V91.4074C164.943 93.0642 163.6 94.4074 161.943 94.4074H121.981C120.324 94.4074 118.981 93.0642 118.981 91.4074V51.4454Z" fill="white"/>
</g>
<rect id="Desk-1" x="23" y="80" width="164" height="57" rx="3" fill="#FAEFC0"/>
<rect id="Desk-4" x="670" y="52" width="276" height="81" rx="3" transform="rotate(90 670 52)" fill="#FAEFC0"/>
<rect id="Desk-2" x="23" y="273" width="164" height="55" rx="3" fill="#FAEFC0"/>
<rect id="Desk-3" x="290" y="270" width="144" height="61" rx="3" fill="#FAEFC0"/>
<circle id="Circle-1" cx="362.5" cy="152.5" r="27.5" fill="#D9D9D9"/>
</g>
<defs>
<clipPath id="clip0_0_1">
<rect width="50" height="50" fill="white" transform="translate(296 130.186) rotate(-51.6017)"/>
</clipPath>
<clipPath id="clip1_0_1">
<rect width="50" height="50" fill="white" transform="translate(387.426 87) rotate(38.9411)"/>
</clipPath>
<clipPath id="clip2_0_1">
<rect width="50" height="50" fill="white" transform="translate(334.138 217.709) rotate(-134.649)"/>
</clipPath>
<clipPath id="clip3_0_1">
<rect width="50" height="50" fill="white" transform="translate(430.242 174.056) rotate(128.398)"/>
</clipPath>
</defs>
</svg>
