<svg width="1440" height="1024" viewBox="0 0 1440 1024" fill="none" xmlns="http://www.w3.org/2000/svg">
<g id="Section-D">
<rect width="1440" height="1024" fill="white"/>
<rect id="Desk2" x="973" y="408" width="188" height="364" fill="white" stroke="black" stroke-width="2"/>
<g id="D7">
<mask id="path-2-inside-1_1_1681" fill="white">
<path d="M872 433H972V533H872V433Z"/>
</mask>
<path d="M872 433H972V533H872V433Z" fill="white"/>
<path d="M872 433V431H870V433H872ZM872 533H870V535H872V533ZM872 433V435H972V433V431H872V433ZM972 533V531H872V533V535H972V533ZM872 533H874V433H872H870V533H872Z" fill="black" mask="url(#path-2-inside-1_1_1681)"/>
</g>
<g id="D8">
<mask id="path-4-inside-2_1_1681" fill="white">
<path d="M872 621H972V721H872V621Z"/>
</mask>
<path d="M872 621H972V721H872V621Z" fill="white"/>
<path d="M872 621V619H870V621H872ZM872 721H870V723H872V721ZM872 621V623H972V621V619H872V621ZM972 721V719H872V721V723H972V721ZM872 721H874V621H872H870V721H872Z" fill="black" mask="url(#path-4-inside-2_1_1681)"/>
</g>
<g id="D9">
<mask id="path-6-inside-3_1_1681" fill="white">
<path d="M1162 433H1262V533H1162V433Z"/>
</mask>
<path d="M1162 433H1262V533H1162V433Z" fill="white"/>
<path d="M1262 433H1264V431H1262V433ZM1262 533V535H1264V533H1262ZM1162 433V435H1262V433V431H1162V433ZM1262 433H1260V533H1262H1264V433H1262ZM1262 533V531H1162V533V535H1262V533Z" fill="black" mask="url(#path-6-inside-3_1_1681)"/>
</g>
<g id="D10">
<mask id="path-8-inside-4_1_1681" fill="white">
<path d="M1162 621H1262V721H1162V621Z"/>
</mask>
<path d="M1162 621H1262V721H1162V621Z" fill="white"/>
<path d="M1262 621H1264V619H1262V621ZM1262 721V723H1264V721H1262ZM1162 621V623H1262V621V619H1162V621ZM1262 621H1260V721H1262H1264V621H1262ZM1262 721V719H1162V721V723H1262V721Z" fill="black" mask="url(#path-8-inside-4_1_1681)"/>
</g>
<rect id="Desk1" x="285" y="208" width="188" height="564" fill="white" stroke="black" stroke-width="2"/>
<g id="D4">
<mask id="path-11-inside-5_1_1681" fill="white">
<path d="M474 245H574V345H474V245Z"/>
</mask>
<path d="M474 245H574V345H474V245Z" fill="white"/>
<path d="M574 245H576V243H574V245ZM574 345V347H576V345H574ZM474 245V247H574V245V243H474V245ZM574 245H572V345H574H576V245H574ZM574 345V343H474V345V347H574V345Z" fill="black" mask="url(#path-11-inside-5_1_1681)"/>
</g>
<g id="D5">
<mask id="path-13-inside-6_1_1681" fill="white">
<path d="M474 433H574V533H474V433Z"/>
</mask>
<path d="M474 433H574V533H474V433Z" fill="white"/>
<path d="M574 433H576V431H574V433ZM574 533V535H576V533H574ZM474 433V435H574V433V431H474V433ZM574 433H572V533H574H576V433H574ZM574 533V531H474V533V535H574V533Z" fill="black" mask="url(#path-13-inside-6_1_1681)"/>
</g>
<g id="D6">
<mask id="path-15-inside-7_1_1681" fill="white">
<path d="M474 621H574V721H474V621Z"/>
</mask>
<path d="M474 621H574V721H474V621Z" fill="white"/>
<path d="M574 621H576V619H574V621ZM574 721V723H576V721H574ZM474 621V623H574V621V619H474V621ZM574 621H572V721H574H576V621H574ZM574 721V719H474V721V723H574V721Z" fill="black" mask="url(#path-15-inside-7_1_1681)"/>
</g>
<g id="D1">
<mask id="path-17-inside-8_1_1681" fill="white">
<path d="M184 245H284V345H184V245Z"/>
</mask>
<path d="M184 245H284V345H184V245Z" fill="white"/>
<path d="M184 245V243H182V245H184ZM184 345H182V347H184V345ZM184 245V247H284V245V243H184V245ZM284 345V343H184V345V347H284V345ZM184 345H186V245H184H182V345H184Z" fill="black" mask="url(#path-17-inside-8_1_1681)"/>
</g>
<g id="D2">
<mask id="path-19-inside-9_1_1681" fill="white">
<path d="M184 433H284V533H184V433Z"/>
</mask>
<path d="M184 433H284V533H184V433Z" fill="white"/>
<path d="M184 433V431H182V433H184ZM184 533H182V535H184V533ZM184 433V435H284V433V431H184V433ZM284 533V531H184V533V535H284V533ZM184 533H186V433H184H182V533H184Z" fill="black" mask="url(#path-19-inside-9_1_1681)"/>
</g>
<g id="D3">
<mask id="path-21-inside-10_1_1681" fill="white">
<path d="M184 621H284V721H184V621Z"/>
</mask>
<path d="M184 621H284V721H184V621Z" fill="white"/>
<path d="M184 621V619H182V621H184ZM184 721H182V723H184V721ZM184 621V623H284V621V619H184V621ZM284 721V719H184V721V723H284V721ZM184 721H186V621H184H182V721H184Z" fill="black" mask="url(#path-21-inside-10_1_1681)"/>
</g>
</g>
</svg>
