<svg width="523" height="348" viewBox="0 0 523 348" fill="none" xmlns="http://www.w3.org/2000/svg">
<rect width="523" height="348" fill="#F5F5F5"/>
<g id="Section-E">
<rect x="1" y="1" width="521" height="346" rx="1" stroke="black" stroke-width="2"/>
<g id="Seat-G3">
<path id="Square-G3" d="M153.981 117.981C153.981 116.324 155.324 114.981 156.981 114.981L196.943 114.981C198.6 114.981 199.943 116.324 199.943 117.981V157.943C199.943 159.6 198.6 160.943 196.943 160.943L156.981 160.943C155.324 160.943 153.981 159.6 153.981 157.943L153.981 117.981Z" fill="white"/>
</g>
<g id="Seat-G1">
<path id="Square-G1" d="M61.981 117.981C61.981 116.324 63.3241 114.981 64.981 114.981H104.943C106.6 114.981 107.943 116.324 107.943 117.981V157.943C107.943 159.6 106.6 160.943 104.943 160.943H64.981C63.3241 160.943 61.981 159.6 61.981 157.943V117.981Z" fill="white"/>
</g>
<g id="Seat-G4">
<path id="Square-G4" d="M153.981 199.981C153.981 198.324 155.324 196.981 156.981 196.981L196.943 196.981C198.6 196.981 199.943 198.324 199.943 199.981V239.943C199.943 241.6 198.6 242.943 196.943 242.943L156.981 242.943C155.324 242.943 153.981 241.6 153.981 239.943L153.981 199.981Z" fill="white"/>
</g>
<g id="Seat-G2">
<path id="Square-G2" d="M61.981 199.981C61.981 198.324 63.3241 196.981 64.981 196.981H104.943C106.6 196.981 107.943 198.324 107.943 199.981V239.943C107.943 241.6 106.6 242.943 104.943 242.943H64.981C63.3241 242.943 61.981 241.6 61.981 239.943V199.981Z" fill="white"/>
</g>
<g id="Seat-G6">
<path id="Square-G6" d="M248.981 199.981C248.981 198.324 250.324 196.981 251.981 196.981L291.943 196.981C293.6 196.981 294.943 198.324 294.943 199.981V239.943C294.943 241.6 293.6 242.943 291.943 242.943L251.981 242.943C250.324 242.943 248.981 241.6 248.981 239.943L248.981 199.981Z" fill="white"/>
</g>
<g id="Seat-G8">
<path id="Square-G8" d="M334.981 199.981C334.981 198.324 336.324 196.981 337.981 196.981H377.943C379.6 196.981 380.943 198.324 380.943 199.981V239.943C380.943 241.6 379.6 242.943 377.943 242.943H337.981C336.324 242.943 334.981 241.6 334.981 239.943V199.981Z" fill="white"/>
</g>
<g id="Seat-G10">
<path id="Square-G10" d="M426.981 199.981C426.981 198.324 428.324 196.981 429.981 196.981H469.943C471.6 196.981 472.943 198.324 472.943 199.981V239.943C472.943 241.6 471.6 242.943 469.943 242.943H429.981C428.324 242.943 426.981 241.6 426.981 239.943V199.981Z" fill="white"/>
</g>
<g id="Seat-G9">
<path id="Square-G9" d="M426.981 117.981C426.981 116.324 428.324 114.981 429.981 114.981H469.943C471.6 114.981 472.943 116.324 472.943 117.981V157.943C472.943 159.6 471.6 160.943 469.943 160.943H429.981C428.324 160.943 426.981 159.6 426.981 157.943V117.981Z" fill="white"/>
</g>
<g id="Seat-G5">
<path id="Square-G5" d="M248.981 115.859C248.981 114.142 250.273 112.75 251.868 112.75H292.056C293.65 112.75 294.943 114.142 294.943 115.859V159.141C294.943 160.858 293.65 162.25 292.056 162.25H251.868C250.273 162.25 248.981 160.858 248.981 159.141V115.859Z" fill="white"/>
</g>
<g id="Seat-G7">
<path id="Square-G7" d="M334.981 117.981C334.981 116.324 336.324 114.981 337.981 114.981H377.943C379.6 114.981 380.943 116.324 380.943 117.981V157.943C380.943 159.6 379.6 160.943 377.943 160.943H337.981C336.324 160.943 334.981 159.6 334.981 157.943V117.981Z" fill="white"/>
</g>
<rect id="Desk-2" x="252" y="92" width="164" height="57" rx="3" transform="rotate(90 252 92)" fill="#FAEFC0"/>
<rect id="Desk-1" x="68" y="92" width="164" height="57" rx="3" transform="rotate(90 68 92)" fill="#FAEFC0"/>
<rect id="Desk-3" x="431" y="91" width="164" height="55" rx="3" transform="rotate(90 431 91)" fill="#FAEFC0"/>
</g>
</svg>
