<svg width="1440" height="1024" viewBox="0 0 1440 1024" fill="none" xmlns="http://www.w3.org/2000/svg">
<g id="Section-F">
<rect width="1440" height="1024" fill="white"/>
<rect id="Desk1" x="306" y="327" width="188" height="364" fill="white" stroke="black" stroke-width="2"/>
<rect id="Desk2" x="895" y="327" width="188" height="364" fill="white" stroke="black" stroke-width="2"/>
<g id="F1">
<mask id="path-3-inside-1_1_1681" fill="white">
<path d="M205 357H305V457H205V357Z"/>
</mask>
<path d="M205 357H305V457H205V357Z" fill="white"/>
<path d="M205 357V355H203V357H205ZM205 457H203V459H205V457ZM205 357V359H305V357V355H205V357ZM305 457V455H205V457V459H305V457ZM205 457H207V357H205H203V457H205Z" fill="black" mask="url(#path-3-inside-1_1_1681)"/>
</g>
<g id="F2">
<mask id="path-5-inside-2_1_1681" fill="white">
<path d="M205 553H305V653H205V553Z"/>
</mask>
<path d="M205 553H305V653H205V553Z" fill="white"/>
<path d="M205 553V551H203V553H205ZM205 653H203V655H205V653ZM205 553V555H305V553V551H205V553ZM305 653V651H205V653V655H305V653ZM205 653H207V553H205H203V653H205Z" fill="black" mask="url(#path-5-inside-2_1_1681)"/>
</g>
<g id="F3">
<mask id="path-7-inside-3_1_1681" fill="white">
<path d="M495 357H595V457H495V357Z"/>
</mask>
<path d="M495 357H595V457H495V357Z" fill="white"/>
<path d="M595 357H597V355H595V357ZM595 457V459H597V457H595ZM495 357V359H595V357V355H495V357ZM595 357H593V457H595H597V357H595ZM595 457V455H495V457V459H595V457Z" fill="black" mask="url(#path-7-inside-3_1_1681)"/>
</g>
<g id="F4">
<mask id="path-9-inside-4_1_1681" fill="white">
<path d="M495 553H595V653H495V553Z"/>
</mask>
<path d="M495 553H595V653H495V553Z" fill="white"/>
<path d="M595 553H597V551H595V553ZM595 653V655H597V653H595ZM495 553V555H595V553V551H495V553ZM595 553H593V653H595H597V553H595ZM595 653V651H495V653V655H595V653Z" fill="black" mask="url(#path-9-inside-4_1_1681)"/>
</g>
<g id="F5">
<mask id="path-11-inside-5_1_1681" fill="white">
<path d="M794 357H894V457H794V357Z"/>
</mask>
<path d="M794 357H894V457H794V357Z" fill="white"/>
<path d="M794 357V355H792V357H794ZM794 457H792V459H794V457ZM794 357V359H894V357V355H794V357ZM894 457V455H794V457V459H894V457ZM794 457H796V357H794H792V457H794Z" fill="black" mask="url(#path-11-inside-5_1_1681)"/>
</g>
<g id="F6">
<mask id="path-13-inside-6_1_1681" fill="white">
<path d="M794 553H894V653H794V553Z"/>
</mask>
<path d="M794 553H894V653H794V553Z" fill="white"/>
<path d="M794 553V551H792V553H794ZM794 653H792V655H794V653ZM794 553V555H894V553V551H794V553ZM894 653V651H794V653V655H894V653ZM794 653H796V553H794H792V653H794Z" fill="black" mask="url(#path-13-inside-6_1_1681)"/>
</g>
<g id="F7">
<mask id="path-15-inside-7_1_1681" fill="white">
<path d="M1084 357H1184V457H1084V357Z"/>
</mask>
<path d="M1084 357H1184V457H1084V357Z" fill="white"/>
<path d="M1184 357H1186V355H1184V357ZM1184 457V459H1186V457H1184ZM1084 357V359H1184V357V355H1084V357ZM1184 357H1182V457H1184H1186V357H1184ZM1184 457V455H1084V457V459H1184V457Z" fill="black" mask="url(#path-15-inside-7_1_1681)"/>
</g>
<g id="F8">
<mask id="path-17-inside-8_1_1681" fill="white">
<path d="M1084 553H1184V653H1084V553Z"/>
</mask>
<path d="M1084 553H1184V653H1084V553Z" fill="white"/>
<path d="M1184 553H1186V551H1184V553ZM1184 653V655H1186V653H1184ZM1084 553V555H1184V553V551H1084V553ZM1184 553H1182V653H1184H1186V553H1184ZM1184 653V651H1084V653V655H1184V653Z" fill="black" mask="url(#path-17-inside-8_1_1681)"/>
</g>
</g>
</svg>
