<svg width="1440" height="1024" viewBox="0 0 1440 1024" fill="none" xmlns="http://www.w3.org/2000/svg">
<g id="Section-C">
<rect width="1440" height="1024" fill="white"/>
<rect id="Desk1" x="980" y="277" width="188" height="564" transform="rotate(90 980 277)" fill="white" stroke="black" stroke-width="2"/>
<g id="C4">
<mask id="path-2-inside-1_1_1681" fill="white">
<path d="M552 466V566H452V466H552Z"/>
</mask>
<path d="M552 466V566H452V466H552Z" fill="white"/>
<path d="M552 566V568H554V566H552ZM452 566H450V568H452V566ZM552 466H550V566H552H554V466H552ZM552 566V564H452V566V568H552V566ZM452 566H454V466H452H450V566H452Z" fill="black" mask="url(#path-2-inside-1_1_1681)"/>
</g>
<g id="C5">
<mask id="path-4-inside-2_1_1681" fill="white">
<path d="M748 466V566H648V466H748Z"/>
</mask>
<path d="M748 466V566H648V466H748Z" fill="white"/>
<path d="M748 566V568H750V566H748ZM648 566H646V568H648V566ZM748 466H746V566H748H750V466H748ZM748 566V564H648V566V568H748V566ZM648 566H650V466H648H646V566H648Z" fill="black" mask="url(#path-4-inside-2_1_1681)"/>
</g>
<g id="C6">
<mask id="path-6-inside-3_1_1681" fill="white">
<path d="M944 466V566H844V466H944Z"/>
</mask>
<path d="M944 466V566H844V466H944Z" fill="white"/>
<path d="M944 566V568H946V566H944ZM844 566H842V568H844V566ZM944 466H942V566H944H946V466H944ZM944 566V564H844V566V568H944V566ZM844 566H846V466H844H842V566H844Z" fill="black" mask="url(#path-6-inside-3_1_1681)"/>
</g>
<g id="C1">
<mask id="path-8-inside-4_1_1681" fill="white">
<path d="M552 176V276H452V176H552Z"/>
</mask>
<path d="M552 176V276H452V176H552Z" fill="white"/>
<path d="M552 176H554V174H552V176ZM452 176V174H450V176H452ZM552 176H550V276H552H554V176H552ZM452 276H454V176H452H450V276H452ZM452 176V178H552V176V174H452V176Z" fill="black" mask="url(#path-8-inside-4_1_1681)"/>
</g>
<g id="C2">
<mask id="path-10-inside-5_1_1681" fill="white">
<path d="M748 176V276H648V176H748Z"/>
</mask>
<path d="M748 176V276H648V176H748Z" fill="white"/>
<path d="M748 176H750V174H748V176ZM648 176V174H646V176H648ZM748 176H746V276H748H750V176H748ZM648 276H650V176H648H646V276H648ZM648 176V178H748V176V174H648V176Z" fill="black" mask="url(#path-10-inside-5_1_1681)"/>
</g>
<g id="C3">
<mask id="path-12-inside-6_1_1681" fill="white">
<path d="M944 176V276H844V176H944Z"/>
</mask>
<path d="M944 176V276H844V176H944Z" fill="white"/>
<path d="M944 176H946V174H944V176ZM844 176V174H842V176H844ZM944 176H942V276H944H946V176H944ZM844 276H846V176H844H842V276H844ZM844 176V178H944V176V174H844V176Z" fill="black" mask="url(#path-12-inside-6_1_1681)"/>
</g>
<rect id="Desk2" x="980" y="780" width="188" height="564" transform="rotate(90 980 780)" fill="white" stroke="black" stroke-width="2"/>
<g id="C7">
<mask id="path-15-inside-7_1_1681" fill="white">
<path d="M552 679V779H452V679H552Z"/>
</mask>
<path d="M552 679V779H452V679H552Z" fill="white"/>
<path d="M552 679H554V677H552V679ZM452 679V677H450V679H452ZM552 679H550V779H552H554V679H552ZM452 779H454V679H452H450V779H452ZM452 679V681H552V679V677H452V679Z" fill="black" mask="url(#path-15-inside-7_1_1681)"/>
</g>
<g id="C8">
<mask id="path-17-inside-8_1_1681" fill="white">
<path d="M748 679V779H648V679H748Z"/>
</mask>
<path d="M748 679V779H648V679H748Z" fill="white"/>
<path d="M748 679H750V677H748V679ZM648 679V677H646V679H648ZM748 679H746V779H748H750V679H748ZM648 779H650V679H648H646V779H648ZM648 679V681H748V679V677H648V679Z" fill="black" mask="url(#path-17-inside-8_1_1681)"/>
</g>
<g id="C9">
<mask id="path-19-inside-9_1_1681" fill="white">
<path d="M944 679V779H844V679H944Z"/>
</mask>
<path d="M944 679V779H844V679H944Z" fill="white"/>
<path d="M944 679H946V677H944V679ZM844 679V677H842V679H844ZM944 679H942V779H944H946V679H944ZM844 779H846V679H844H842V779H844ZM844 679V681H944V679V677H844V679Z" fill="black" mask="url(#path-19-inside-9_1_1681)"/>
</g>
</g>
</svg>
