<svg width="1440" height="1024" viewBox="0 0 1440 1024" fill="none" xmlns="http://www.w3.org/2000/svg">
<g id="Section-B">
<rect width="1440" height="1024" fill="white"/>
<rect id="Desk1" x="131" y="408" width="188" height="364" fill="white" stroke="black" stroke-width="2"/>
<g id="B1">
<mask id="path-2-inside-1_1_1681" fill="white">
<path d="M30 433H130V533H30V433Z"/>
</mask>
<path d="M30 433H130V533H30V433Z" fill="white"/>
<path d="M30 433V431H28V433H30ZM30 533H28V535H30V533ZM30 433V435H130V433V431H30V433ZM130 533V531H30V533V535H130V533ZM30 533H32V433H30H28V533H30Z" fill="black" mask="url(#path-2-inside-1_1_1681)"/>
</g>
<g id="B2">
<mask id="path-4-inside-2_1_1681" fill="white">
<path d="M30 621H130V721H30V621Z"/>
</mask>
<path d="M30 621H130V721H30V621Z" fill="white"/>
<path d="M30 621V619H28V621H30ZM30 721H28V723H30V721ZM30 621V623H130V621V619H30V621ZM130 721V719H30V721V723H130V721ZM30 721H32V621H30H28V721H30Z" fill="black" mask="url(#path-4-inside-2_1_1681)"/>
</g>
<g id="B3">
<mask id="path-6-inside-3_1_1681" fill="white">
<path d="M320 433H420V533H320V433Z"/>
</mask>
<path d="M320 433H420V533H320V433Z" fill="white"/>
<path d="M420 433H422V431H420V433ZM420 533V535H422V533H420ZM320 433V435H420V433V431H320V433ZM420 433H418V533H420H422V433H420ZM420 533V531H320V533V535H420V533Z" fill="black" mask="url(#path-6-inside-3_1_1681)"/>
</g>
<g id="B4">
<mask id="path-8-inside-4_1_1681" fill="white">
<path d="M320 621H420V721H320V621Z"/>
</mask>
<path d="M320 621H420V721H320V621Z" fill="white"/>
<path d="M420 621H422V619H420V621ZM420 721V723H422V721H420ZM320 621V623H420V621V619H320V621ZM420 621H418V721H420H422V621H420ZM420 721V719H320V721V723H420V721Z" fill="black" mask="url(#path-8-inside-4_1_1681)"/>
</g>
<rect id="Desk2" x="633" y="208" width="188" height="564" fill="white" stroke="black" stroke-width="2"/>
<g id="B8">
<mask id="path-11-inside-5_1_1681" fill="white">
<path d="M822 245H922V345H822V245Z"/>
</mask>
<path d="M822 245H922V345H822V245Z" fill="white"/>
<path d="M922 245H924V243H922V245ZM922 345V347H924V345H922ZM822 245V247H922V245V243H822V245ZM922 245H920V345H922H924V245H922ZM922 345V343H822V345V347H922V345Z" fill="black" mask="url(#path-11-inside-5_1_1681)"/>
</g>
<g id="B9">
<mask id="path-13-inside-6_1_1681" fill="white">
<path d="M822 433H922V533H822V433Z"/>
</mask>
<path d="M822 433H922V533H822V433Z" fill="white"/>
<path d="M922 433H924V431H922V433ZM922 533V535H924V533H922ZM822 433V435H922V433V431H822V433ZM922 433H920V533H922H924V433H922ZM922 533V531H822V533V535H922V533Z" fill="black" mask="url(#path-13-inside-6_1_1681)"/>
</g>
<g id="B10">
<mask id="path-15-inside-7_1_1681" fill="white">
<path d="M822 621H922V721H822V621Z"/>
</mask>
<path d="M822 621H922V721H822V621Z" fill="white"/>
<path d="M922 621H924V619H922V621ZM922 721V723H924V721H922ZM822 621V623H922V621V619H822V621ZM922 621H920V721H922H924V621H922ZM922 721V719H822V721V723H922V721Z" fill="black" mask="url(#path-15-inside-7_1_1681)"/>
</g>
<g id="B5">
<mask id="path-17-inside-8_1_1681" fill="white">
<path d="M532 245H632V345H532V245Z"/>
</mask>
<path d="M532 245H632V345H532V245Z" fill="white"/>
<path d="M532 245V243H530V245H532ZM532 345H530V347H532V345ZM532 245V247H632V245V243H532V245ZM632 345V343H532V345V347H632V345ZM532 345H534V245H532H530V345H532Z" fill="black" mask="url(#path-17-inside-8_1_1681)"/>
</g>
<g id="B6">
<mask id="path-19-inside-9_1_1681" fill="white">
<path d="M532 433H632V533H532V433Z"/>
</mask>
<path d="M532 433H632V533H532V433Z" fill="white"/>
<path d="M532 433V431H530V433H532ZM532 533H530V535H532V533ZM532 433V435H632V433V431H532V433ZM632 533V531H532V533V535H632V533ZM532 533H534V433H532H530V533H532Z" fill="black" mask="url(#path-19-inside-9_1_1681)"/>
</g>
<g id="B7">
<mask id="path-21-inside-10_1_1681" fill="white">
<path d="M532 621H632V721H532V621Z"/>
</mask>
<path d="M532 621H632V721H532V621Z" fill="white"/>
<path d="M532 621V619H530V621H532ZM532 721H530V723H532V721ZM532 621V623H632V621V619H532V621ZM632 721V719H532V721V723H632V721ZM532 721H534V621H532H530V721H532Z" fill="black" mask="url(#path-21-inside-10_1_1681)"/>
</g>
<rect id="Desk3" x="1162" y="208" width="188" height="564" fill="white" stroke="black" stroke-width="2"/>
<g id="B11">
<mask id="path-24-inside-11_1_1681" fill="white">
<path d="M1061 245H1161V345H1061V245Z"/>
</mask>
<path d="M1061 245H1161V345H1061V245Z" fill="white"/>
<path d="M1061 245V243H1059V245H1061ZM1061 345H1059V347H1061V345ZM1061 245V247H1161V245V243H1061V245ZM1161 345V343H1061V345V347H1161V345ZM1061 345H1063V245H1061H1059V345H1061Z" fill="black" mask="url(#path-24-inside-11_1_1681)"/>
</g>
<g id="B12">
<mask id="path-26-inside-12_1_1681" fill="white">
<path d="M1061 433H1161V533H1061V433Z"/>
</mask>
<path d="M1061 433H1161V533H1061V433Z" fill="white"/>
<path d="M1061 433V431H1059V433H1061ZM1061 533H1059V535H1061V533ZM1061 433V435H1161V433V431H1061V433ZM1161 533V531H1061V533V535H1161V533ZM1061 533H1063V433H1061H1059V533H1061Z" fill="black" mask="url(#path-26-inside-12_1_1681)"/>
</g>
<g id="B13">
<mask id="path-28-inside-13_1_1681" fill="white">
<path d="M1061 621H1161V721H1061V621Z"/>
</mask>
<path d="M1061 621H1161V721H1061V621Z" fill="white"/>
<path d="M1061 621V619H1059V621H1061ZM1061 721H1059V723H1061V721ZM1061 621V623H1161V621V619H1061V621ZM1161 721V719H1061V721V723H1161V721ZM1061 721H1063V621H1061H1059V721H1061Z" fill="black" mask="url(#path-28-inside-13_1_1681)"/>
</g>
</g>
</svg>
