<svg width="1440" height="1024" viewBox="0 0 1440 1024" fill="none" xmlns="http://www.w3.org/2000/svg">
<g id="Section-A">
<rect width="1440" height="1024" fill="white"/>
<rect id="Desk1" x="1" y="345" width="320" height="166" fill="white" stroke="black" stroke-width="2"/>
<g id="A1">
<mask id="path-2-inside-1_5_28" fill="white">
<path d="M31 244H131V344H31V244Z"/>
</mask>
<path d="M31 244H131V344H31V244Z" fill="white"/>
<path d="M31 244V242H29V244H31ZM131 244H133V242H131V244ZM31 244V246H131V244V242H31V244ZM131 244H129V344H131H133V244H131ZM31 344H33V244H31H29V344H31Z" fill="black" mask="url(#path-2-inside-1_5_28)"/>
</g>
<g id="A2">
<mask id="path-4-inside-2_5_28" fill="white">
<path d="M194 244H294V344H194V244Z"/>
</mask>
<path d="M194 244H294V344H194V244Z" fill="white"/>
<path d="M194 244V242H192V244H194ZM294 244H296V242H294V244ZM194 244V246H294V244V242H194V244ZM294 244H292V344H294H296V244H294ZM194 344H196V244H194H192V344H194Z" fill="black" mask="url(#path-4-inside-2_5_28)"/>
</g>
<g id="A3">
<mask id="path-6-inside-3_5_28" fill="white">
<path d="M31 512H131V612H31V512Z"/>
</mask>
<path d="M31 512H131V612H31V512Z" fill="white"/>
<path d="M131 612V614H133V612H131ZM31 612H29V614H31V612ZM131 512H129V612H131H133V512H131ZM131 612V610H31V612V614H131V612ZM31 612H33V512H31H29V612H31Z" fill="black" mask="url(#path-6-inside-3_5_28)"/>
</g>
<g id="A4">
<mask id="path-8-inside-4_5_28" fill="white">
<path d="M194 512H294V612H194V512Z"/>
</mask>
<path d="M194 512H294V612H194V512Z" fill="white"/>
<path d="M294 612V614H296V612H294ZM194 612H192V614H194V612ZM294 512H292V612H294H296V512H294ZM294 612V610H194V612V614H294V612ZM194 612H196V512H194H192V612H194Z" fill="black" mask="url(#path-8-inside-4_5_28)"/>
</g>
<rect id="Desk2" x="1" y="811" width="320" height="166" fill="white" stroke="black" stroke-width="2"/>
<g id="A5">
<mask id="path-11-inside-5_5_28" fill="white">
<path d="M31 710H131V810H31V710Z"/>
</mask>
<path d="M31 710H131V810H31V710Z" fill="white"/>
<path d="M31 710V708H29V710H31ZM131 710H133V708H131V710ZM31 710V712H131V710V708H31V710ZM131 710H129V810H131H133V710H131ZM31 810H33V710H31H29V810H31Z" fill="black" mask="url(#path-11-inside-5_5_28)"/>
</g>
<g id="A6">
<mask id="path-13-inside-6_5_28" fill="white">
<path d="M194 710H294V810H194V710Z"/>
</mask>
<path d="M194 710H294V810H194V710Z" fill="white"/>
<path d="M194 710V708H192V710H194ZM294 710H296V708H294V710ZM194 710V712H294V710V708H194V710ZM294 710H292V810H294H296V710H294ZM194 810H196V710H194H192V810H194Z" fill="black" mask="url(#path-13-inside-6_5_28)"/>
</g>
<rect id="Desk3" x="466" y="677" width="320" height="166" fill="white" stroke="black" stroke-width="2"/>
<g id="A7">
<mask id="path-16-inside-7_5_28" fill="white">
<path d="M365 710H465V810H365V710Z"/>
</mask>
<path d="M365 710H465V810H365V710Z" fill="white"/>
<path d="M365 710V708H363V710H365ZM365 810H363V812H365V810ZM365 710V712H465V710V708H365V710ZM465 810V808H365V810V812H465V810ZM365 810H367V710H365H363V810H365Z" fill="black" mask="url(#path-16-inside-7_5_28)"/>
</g>
<g id="A8">
<mask id="path-18-inside-8_5_28" fill="white">
<path d="M787 710H887V810H787V710Z"/>
</mask>
<path d="M787 710H887V810H787V710Z" fill="white"/>
<path d="M887 710H889V708H887V710ZM887 810V812H889V810H887ZM787 710V712H887V710V708H787V710ZM887 710H885V810H887H889V710H887ZM887 810V808H787V810V812H887V810Z" fill="black" mask="url(#path-18-inside-8_5_28)"/>
</g>
<rect id="Desk4" x="1041" y="158" width="211" height="781" fill="white" stroke="black" stroke-width="2"/>
<g id="A13">
<mask id="path-21-inside-9_5_28" fill="white">
<path d="M1253 209H1353V309H1253V209Z"/>
</mask>
<path d="M1253 209H1353V309H1253V209Z" fill="white"/>
<path d="M1353 209H1355V207H1353V209ZM1353 309V311H1355V309H1353ZM1253 209V211H1353V209V207H1253V209ZM1353 209H1351V309H1353H1355V209H1353ZM1353 309V307H1253V309V311H1353V309Z" fill="black" mask="url(#path-21-inside-9_5_28)"/>
</g>
<g id="A14">
<mask id="path-23-inside-10_5_28" fill="white">
<path d="M1253 398H1353V498H1253V398Z"/>
</mask>
<path d="M1253 398H1353V498H1253V398Z" fill="white"/>
<path d="M1353 398H1355V396H1353V398ZM1353 498V500H1355V498H1353ZM1253 398V400H1353V398V396H1253V398ZM1353 398H1351V498H1353H1355V398H1353ZM1353 498V496H1253V498V500H1353V498Z" fill="black" mask="url(#path-23-inside-10_5_28)"/>
</g>
<g id="A15">
<mask id="path-25-inside-11_5_28" fill="white">
<path d="M1253 587H1353V687H1253V587Z"/>
</mask>
<path d="M1253 587H1353V687H1253V587Z" fill="white"/>
<path d="M1353 587H1355V585H1353V587ZM1353 687V689H1355V687H1353ZM1253 587V589H1353V587V585H1253V587ZM1353 587H1351V687H1353H1355V587H1353ZM1353 687V685H1253V687V689H1353V687Z" fill="black" mask="url(#path-25-inside-11_5_28)"/>
</g>
<g id="A16">
<mask id="path-27-inside-12_5_28" fill="white">
<path d="M1253 776H1353V876H1253V776Z"/>
</mask>
<path d="M1253 776H1353V876H1253V776Z" fill="white"/>
<path d="M1353 776H1355V774H1353V776ZM1353 876V878H1355V876H1353ZM1253 776V778H1353V776V774H1253V776ZM1353 776H1351V876H1353H1355V776H1353ZM1353 876V874H1253V876V878H1353V876Z" fill="black" mask="url(#path-27-inside-12_5_28)"/>
</g>
<g id="A9">
<mask id="path-29-inside-13_5_28" fill="white">
<path d="M940 209H1040V309H940V209Z"/>
</mask>
<path d="M940 209H1040V309H940V209Z" fill="white"/>
<path d="M940 209V207H938V209H940ZM940 309H938V311H940V309ZM940 209V211H1040V209V207H940V209ZM1040 309V307H940V309V311H1040V309ZM940 309H942V209H940H938V309H940Z" fill="black" mask="url(#path-29-inside-13_5_28)"/>
</g>
<g id="A10">
<mask id="path-31-inside-14_5_28" fill="white">
<path d="M940 398H1040V498H940V398Z"/>
</mask>
<path d="M940 398H1040V498H940V398Z" fill="white"/>
<path d="M940 398V396H938V398H940ZM940 498H938V500H940V498ZM940 398V400H1040V398V396H940V398ZM1040 498V496H940V498V500H1040V498ZM940 498H942V398H940H938V498H940Z" fill="black" mask="url(#path-31-inside-14_5_28)"/>
</g>
<g id="A11">
<mask id="path-33-inside-15_5_28" fill="white">
<path d="M940 592H1040V692H940V592Z"/>
</mask>
<path d="M940 592H1040V692H940V592Z" fill="white"/>
<path d="M940 592V590H938V592H940ZM940 692H938V694H940V692ZM940 592V594H1040V592V590H940V592ZM1040 692V690H940V692V694H1040V692ZM940 692H942V592H940H938V692H940Z" fill="black" mask="url(#path-33-inside-15_5_28)"/>
</g>
<g id="A12">
<mask id="path-35-inside-16_5_28" fill="white">
<path d="M940 776H1040V876H940V776Z"/>
</mask>
<path d="M940 776H1040V876H940V776Z" fill="white"/>
<path d="M940 776V774H938V776H940ZM940 876H938V878H940V876ZM940 776V778H1040V776V774H940V776ZM1040 876V874H940V876V878H1040V876ZM940 876H942V776H940H938V876H940Z" fill="black" mask="url(#path-35-inside-16_5_28)"/>
</g>
</g>
</svg>
